<?xml version="1.0" encoding="utf-8"?>
<!-- Generator: Adobe Illustrator 26.2.1, SVG Export Plug-In . SVG Version: 6.00 Build 0)  -->
<svg version="1.1" id="Layer_1" xmlns="http://www.w3.org/2000/svg" xmlns:xlink="http://www.w3.org/1999/xlink" x="0px" y="0px"
	 viewBox="0 0 108 73" style="enable-background:new 0 0 108 73;" xml:space="preserve">
<style type="text/css">
	.st0{fill:#1A85B5;}
</style>
<g>
	<g>
		<path class="st0" d="M13.2,0.8c8.4,5.6,18.4,11.2,30,16.4l3-1V0.8H13.2z M15.4,16.2h1.7C11.5,14,5.8,11.6,0,9v58.5l5.1,5.1H41
			l5.1-15.4H15.4V16.2z M30.8,21.3l0.3-0.1c-0.1,0-0.2-0.1-0.3-0.1V21.3z"/>
		<path class="st0" d="M61.6,30v42.7h41.1l5.1-5.1V39.3l-1.7-1.7C96.5,36.6,80.7,34.5,61.6,30z M92.4,57.3H77V41.9h15.4V57.3z
			 M102.6,0.8h-41l-5.1,15.4h5.1v8.4c12.7,4.5,27.1,8.5,43.2,11.7l-2.1-2.1l5.1-5.1V5.9L102.6,0.8z M92.4,26.5H77V16.2h15.4V26.5z"
			/>
	</g>
</g>
</svg>
