<?xml version="1.0" encoding="utf-8"?>
<!-- Generator: Adobe Illustrator 26.2.1, SVG Export Plug-In . SVG Version: 6.00 Build 0)  -->
<svg version="1.1" id="Layer_1" xmlns="http://www.w3.org/2000/svg" xmlns:xlink="http://www.w3.org/1999/xlink" x="0px" y="0px"
	 viewBox="0 0 556 247" style="enable-background:new 0 0 556 247;" xml:space="preserve">
<style type="text/css">
	.st0{fill:#1A85B5;}
</style>
<g>
	<path class="st0" d="M114.2,124.5c8.4,5.6,18.3,11.2,30,16.5l3.3-1.1v-15.4H114.2z M116.7,180.9v-41h1.2c-5.5-2.1-11-4.5-16.6-7
		v58.3l5.1,5.1h35.9l5.1-15.4H116.7z"/>
	<path class="st0" d="M191.1,124.5h-20.5l-5.3,24.9c10,3.5,21.1,6.6,33.2,9.3L191.1,124.5z M198.8,160.5c-9-1.2-21-3.1-34.6-6.3
		l-9,42.1h18l1.1-5.1h13.2l1.1,5.1h18L198.8,160.5z M177.5,175.8l3.3-15.4l3.3,15.4H177.5z"/>
	<path class="st0" d="M229.6,181l0-56.5h-15.4v71.8h30.8l5.2-15.3H229.6z"/>
	<path class="st0" d="M306.5,124.5h-41.1l-5.1,15.4h5.1v56.4h41.1l5.1-5.1v-61.6L306.5,124.5z M296.2,180.9h-15.4v-41h15.4V180.9z"
		/>
	<path class="st0" d="M386,124.5l-7.7,35.9l-7.7-35.9h-18l-7.7,35.9l-7.7-35.9h-18l15.4,71.8h20.5l6.4-29.9l6.4,29.9h20.5l15.4-71.8
		H386z"/>
	<path class="st0" d="M432.2,165.5l15.4,0v-15.4h-15.4l0-10.3h25.7l5.1-15.4l-46.2,0l-5.1,15.4l5.1,0.1v56.4h41.1l5.1-15.4h-30.8
		V165.5z"/>
	<path class="st0" d="M488.7,181l0-56.5h-15.4v71.8h30.8l5.2-15.3H488.7z"/>
	<path class="st0" d="M534.9,181l0-56.5h-15.4v71.8h30.8l5.2-15.3H534.9z"/>
</g>
<g>
	<path class="st0" d="M131.5,207.7l-3-3h-24.3l-3,9.1h3v33.4h24.3l3-3v-16.7l-3-3l3-3V207.7z M122.4,238.1h-9.1V229h9.1V238.1z
		 M122.4,219.9h-9.1v-6.1h9.1V219.9z"/>
	<path class="st0" d="M233.7,204.7h-21.2l-3,3v36.4l3,3h21.2l3-3v-36.4L233.7,204.7z M227.6,238.1h-9.1v-24.3h9.1V238.1z"/>
	<path class="st0" d="M334.4,204.7h-12.1l-9.1,42.5h10.6l0.6-3h7.8l0.6,3h10.6L334.4,204.7z M326.4,235l1.9-9.1l2,9.1H326.4z"/>
	<path class="st0" d="M423,204.7l-3.1,9.1h9.1v33.4h9.1l0-33.4l6.1,0l3-9.1L423,204.7z"/>
	<path class="st0" d="M552.5,213.8v-9.1h-24.3l-3,3v18.2l3,3h15.2v9.1h-9.1v-3l-9.1,3v9.1h24.3l3-3v-21.2l-3-3h-15.2v-6.1h9.1v3
		L552.5,213.8z"/>
</g>
<path class="st0" d="M107.4,109.3c0,0-10.2-5.7-17-11c-9-7-19-17-19-17c0.3,0.6,10.9,21.8,42.8,43.2h-7.8l-5.1,5.1v3.3
	C65.4,116.5,28,91,0.4,51.3l523,40l12,18H107.4z"/>
<path class="st0" d="M344.2,62.7l18.2-32.4l-5.5,5.9L333.3,62l-2.7-0.2l-64.5-4.2l19.2-34.3l-30.8,33.5h0L32.4,42.3l196,1
	c0,0,24-19,33-25c9-6,123-4,146,6s69,47,69,47L344.2,62.7z"/>
<path class="st0" d="M262.4,11.3c10-2,74-7,138,3c0,0,15,0,61,34c0,0-27-27-40-33l36,1c0,0-40-14-129-16s-93,9-93,9L262.4,11.3z"/>
</svg>
